<svg width="150" height="27" viewBox="0 0 150 27" fill="none" xmlns="http://www.w3.org/2000/svg">
<path d="M26.6148 13.2643V16.3439C26.6148 22.04 25.8148 24.8257 22.8332 26.0618H22.8095C21.8393 26.4764 20.6764 26.7187 19.1969 26.8393H19.1721C18.2278 26.9362 17.1855 26.9609 15.9978 26.9609H10.6171C1.88975 26.9609 0 25.0927 0 16.3439V13.2643C0 11.423 1.2846 9.5806 3.85381 7.01032L7.02924 3.85966C12.0707 -1.15816 14.2771 -1.27863 19.1721 3.47203L19.1969 3.49678C19.3175 3.5937 19.465 3.73906 19.5856 3.85966L22.8332 7.10725C25.355 9.62906 26.6148 11.4467 26.6148 13.2643Z" fill="#59C154"/>
<path d="M12.2157 21.1684C10.6403 21.1684 7.41647 20.0023 7.41647 16.3929C7.41647 12.7555 10.6403 11.5926 12.2157 11.5926C14.7375 11.5926 16.7489 13.3629 17.9366 16.3929C16.7489 19.3971 14.7375 21.1684 12.2157 21.1684ZM22.8091 7.08412L19.5852 3.86024C19.4646 3.73964 19.317 3.59428 19.1964 3.49736L19.1717 3.47261V8.36981C19.1964 10.3565 19.6584 11.8349 19.9728 12.6349C19.779 12.2473 19.4646 11.7143 19.0511 11.1565C17.0881 8.90282 14.6158 7.9574 12.2157 7.9574C8.70213 7.9574 3.78125 10.574 3.78125 16.3929C3.78125 22.2097 8.70213 24.8263 12.2157 24.8263C14.6158 24.8263 17.0881 23.8572 19.0511 21.6282C19.4646 21.0468 19.779 20.5353 19.9728 20.1477C19.6584 20.9262 19.1964 22.4035 19.1717 24.4149V26.8398H19.1964C20.6759 26.7192 21.8389 26.477 22.8091 26.0624V24.4149C22.8091 21.4107 22.4214 18.6703 21.7172 16.3929C22.4214 14.1144 22.8091 11.3503 22.8091 8.36981V7.08412Z" fill="white"/>
<mask id="mask0_321_161" style="mask-type:alpha" maskUnits="userSpaceOnUse" x="34" y="3" width="116" height="21">
<path d="M65.6394 3.87402C66.9305 3.87402 68.0795 4.01615 69.0884 4.30259C70.0973 4.5901 70.9491 5.0014 71.6434 5.53549C72.3381 6.07064 72.8657 6.7178 73.2265 7.47908C73.5871 8.24036 73.769 9.09749 73.769 10.0504H69.6923C69.6923 9.60467 69.6052 9.20193 69.4307 8.84336C69.2574 8.48481 69.0021 8.179 68.663 7.92487C68.3237 7.67182 67.9061 7.47693 67.4096 7.33803C66.9121 7.20128 66.3393 7.13236 65.689 7.13236C65.1107 7.13236 64.5831 7.1862 64.1051 7.29279C63.6279 7.40049 63.2199 7.5534 62.8776 7.75151C62.536 7.95073 62.2692 8.1876 62.0795 8.46326C61.8902 8.73891 61.7942 9.04472 61.7942 9.38177C61.7942 9.77803 61.9117 10.101 62.1452 10.353C62.38 10.6039 62.6901 10.8096 63.0755 10.9679C63.4622 11.1283 63.8994 11.2564 64.386 11.3533C64.875 11.4503 65.3712 11.5386 65.8784 11.6226L67.094 11.8207C67.5971 11.9036 68.1225 11.9951 68.6749 12.0974C69.2251 12.1997 69.772 12.3354 70.3115 12.5066C70.852 12.6778 71.3678 12.8921 71.8579 13.1473C72.3488 13.4046 72.7805 13.7244 73.1565 14.111C73.5311 14.4976 73.8294 14.9595 74.0502 15.4957C74.2699 16.0341 74.3796 16.6694 74.3796 17.4016C74.3796 18.3115 74.1988 19.1191 73.8349 19.8244C73.4697 20.5297 72.9346 21.1251 72.2273 21.6119C71.5175 22.0964 70.6423 22.4657 69.6008 22.7188C68.5586 22.9718 67.36 23.101 66.0032 23.101C64.5875 23.101 63.3404 22.9611 62.2648 22.6811C61.1911 22.4033 60.2922 21.9941 59.5697 21.459C58.848 20.9205 58.3044 20.2583 57.9403 19.4723C57.5764 18.6884 57.3956 17.7871 57.3956 16.7717H61.4723C61.4723 17.7548 61.8417 18.5086 62.5801 19.0362C63.3189 19.5606 64.4507 19.8244 65.9787 19.8244C66.6571 19.8244 67.2644 19.7738 67.8027 19.6683C68.3389 19.5638 68.7943 19.4098 69.1658 19.2138C69.5385 19.0147 69.8227 18.7692 70.0176 18.4763C70.2147 18.1855 70.3115 17.8517 70.3115 17.477C70.3115 17.1787 70.2555 16.9203 70.1469 16.6996C70.0369 16.4788 69.8809 16.285 69.6783 16.117C69.4782 15.948 69.2403 15.8059 68.9646 15.6874C68.6879 15.569 68.3852 15.4634 68.0547 15.3719C67.7231 15.2804 67.3719 15.1996 67.0006 15.1285C66.6268 15.0575 66.2466 14.9875 65.8547 14.9218L64.6316 14.7151C64.2881 14.6548 63.9284 14.588 63.5515 14.5159C63.1736 14.4448 62.7902 14.3597 62.4026 14.265C62.0139 14.168 61.6283 14.0518 61.2493 13.9172C60.8683 13.7815 60.5042 13.6211 60.1574 13.4326C59.8098 13.2453 59.4889 13.0288 59.1937 12.7844C58.8988 12.5389 58.6413 12.2546 58.4238 11.9316C58.2063 11.6107 58.0362 11.2446 57.9125 10.8365C57.7876 10.4284 57.725 9.97077 57.725 9.46359C57.725 8.60324 57.9058 7.82906 58.2678 7.13992C58.6286 6.45077 59.1507 5.86608 59.8346 5.38261C60.5182 4.90021 61.3485 4.52763 62.3271 4.26705C63.3048 4.00432 64.4108 3.87402 65.6394 3.87402Z" fill="white"/>
<path d="M80.4592 22.6025H76.3059V4.36935H80.4592V9.58744C80.6552 8.67863 80.9405 7.86889 81.3099 7.16037C81.6782 6.45293 82.125 5.85315 82.6452 5.36646C83.1662 4.87758 83.7594 4.50718 84.424 4.25305C85.0894 4 85.8108 3.87403 86.5937 3.87403C87.4141 3.87403 88.155 4.01185 88.8149 4.29073C89.474 4.56962 90.0468 4.97773 90.54 5.51396C91.0298 6.05234 91.4317 6.7135 91.746 7.49954C92.0616 8.2856 92.2821 9.18471 92.4081 10.2001C92.5785 9.20193 92.8445 8.31145 93.205 7.52754C93.5659 6.74581 94.016 6.0825 94.5478 5.53982C95.0842 4.99603 95.6978 4.58254 96.3902 4.29936C97.0816 4.01508 97.8408 3.87403 98.6677 3.87403C99.6174 3.87403 100.457 4.05924 101.195 4.43179C101.93 4.80329 102.551 5.3449 103.055 6.05667C103.558 6.76734 103.943 7.63954 104.21 8.67325C104.474 9.70696 104.606 10.886 104.606 12.2094V22.6025H100.455V12.6229C100.455 9.23747 99.2168 7.54585 96.7423 7.54585C96.0801 7.54585 95.4878 7.6643 94.9623 7.9012C94.4381 8.13807 93.9998 8.48374 93.6411 8.93813C93.2806 9.3936 93.0079 9.95246 92.8175 10.6125C92.6267 11.2748 92.5322 12.0328 92.5322 12.8878V22.6025H88.3811V12.6229C88.3811 9.23747 87.1428 7.54585 84.6663 7.54585C84.0072 7.54585 83.4118 7.6643 82.8894 7.9012C82.3651 8.13807 81.9257 8.48374 81.5652 8.93813C81.2076 9.3936 80.9331 9.95246 80.7434 10.6125C80.553 11.2748 80.4592 12.0328 80.4592 12.8878V22.6025Z" fill="white"/>
<path d="M123.906 4.36934H119.756V14.0873C119.756 14.9347 119.651 15.6928 119.441 16.355C119.231 17.0194 118.927 17.5793 118.529 18.0348C118.127 18.4892 117.641 18.8337 117.061 19.0739C116.48 19.3108 115.823 19.4292 115.083 19.4292C112.343 19.4292 110.975 17.7354 110.975 14.3511V4.36934H106.821V14.7635C106.821 16.088 106.963 17.2649 107.244 18.2986C107.526 19.3323 107.939 20.2045 108.479 20.9173C109.023 21.628 109.687 22.1696 110.475 22.5411C111.259 22.9126 112.156 23.101 113.165 23.101C114.014 23.101 114.797 22.9686 115.514 22.708C116.23 22.4442 116.867 22.0641 117.427 21.5613C117.987 21.0605 118.464 20.4435 118.86 19.7167C119.252 18.9899 119.551 18.1608 119.756 17.2272V22.6025H123.906V4.36934Z" fill="white"/>
<path d="M145.108 8.2059H137.421V22.6025H133.07V8.2059H125.379V4.36934H145.108V8.2059Z" fill="white"/>
<path fill-rule="evenodd" clip-rule="evenodd" d="M51.5401 4.35535H55.6749C55.6749 7.74614 55.2055 10.8893 54.4345 13.48C55.2055 16.0707 55.6749 19.2139 55.6749 22.6025H51.5401C51.5668 20.3445 52.0633 18.6615 52.4219 17.7516C52.2011 18.1931 51.8706 18.7993 51.3742 19.4346C49.1419 21.9973 46.3294 23.0709 43.6009 23.0709C39.6309 23.0709 34.0078 20.0968 34.0078 13.48C34.0078 6.86426 39.6309 3.88696 43.6009 3.88696C46.3294 3.88696 49.1419 4.96158 51.3742 7.5254C51.8706 8.18761 52.2011 8.76585 52.4219 9.20624C52.0633 8.32436 51.5668 6.64352 51.5401 4.35535ZM38.1427 13.48C38.1427 17.6149 41.8092 18.936 43.6009 18.936C46.4953 18.936 48.7554 16.9257 50.1067 13.48C48.7554 10.0612 46.4953 8.0218 43.6009 8.0218C41.8092 8.0218 38.1427 9.37207 38.1427 13.48Z" fill="white"/>
<path fill-rule="evenodd" clip-rule="evenodd" d="M147.358 5.41168V7.19162H147.782V6.56599H148C148.035 6.56599 148.067 6.56814 148.094 6.57355C148.121 6.57785 148.146 6.58752 148.167 6.60045C148.189 6.6123 148.207 6.63061 148.223 6.65214C148.239 6.67366 148.255 6.7006 148.272 6.7329L148.493 7.19162H148.95L148.729 6.7006C148.652 6.52508 148.543 6.43247 148.403 6.42172C148.48 6.41849 148.546 6.40556 148.609 6.38078C148.67 6.35817 148.722 6.32479 148.765 6.28389C148.81 6.24295 148.842 6.19237 148.867 6.13528C148.891 6.07822 148.902 6.01361 148.902 5.94469C148.902 5.86392 148.888 5.79178 148.856 5.72609C148.826 5.65936 148.783 5.60442 148.726 5.55706C148.67 5.51183 148.603 5.47522 148.525 5.44936C148.447 5.42461 148.358 5.41168 148.261 5.41168H147.358ZM148.395 6.14391C148.34 6.18051 148.261 6.19989 148.162 6.19989H147.782V5.79071H148.159C148.264 5.79071 148.342 5.80794 148.395 5.84132C148.453 5.87685 148.48 5.92639 148.48 5.991C148.48 6.05669 148.453 6.10837 148.395 6.14391Z" fill="white"/>
<path fill-rule="evenodd" clip-rule="evenodd" d="M148.614 4.43506C148.449 4.3909 148.277 4.36937 148.097 4.36937C147.914 4.36937 147.742 4.39197 147.575 4.43613C147.408 4.48027 147.252 4.54381 147.109 4.62565C146.966 4.70854 146.837 4.80761 146.719 4.92391C146.603 5.03913 146.504 5.16833 146.42 5.31153C146.339 5.45369 146.274 5.60767 146.229 5.77241C146.186 5.93717 146.161 6.11053 146.161 6.29141C146.161 6.47125 146.183 6.64353 146.229 6.80827C146.274 6.97195 146.336 7.12593 146.416 7.26699C146.5 7.40911 146.597 7.53727 146.713 7.65354C146.829 7.76876 146.958 7.86676 147.101 7.94968C147.241 8.03149 147.394 8.09503 147.559 8.13919C147.723 8.18332 147.895 8.20593 148.076 8.20593C148.255 8.20593 148.428 8.18332 148.595 8.13919C148.759 8.09288 148.912 8.03042 149.055 7.9475C149.198 7.86461 149.327 7.76446 149.443 7.64816C149.558 7.53079 149.659 7.40159 149.742 7.25728C149.825 7.11515 149.887 6.9601 149.932 6.79319C149.976 6.6263 150 6.45294 150 6.27096C150 6.09007 149.978 5.91994 149.932 5.75518C149.89 5.59152 149.828 5.43861 149.747 5.29756C149.666 5.15648 149.567 5.02835 149.454 4.9142C149.338 4.80008 149.212 4.70316 149.068 4.62239C148.929 4.54166 148.776 4.47812 148.614 4.43506ZM147.674 4.78715C147.805 4.7527 147.945 4.73547 148.094 4.73547C148.239 4.73547 148.377 4.7527 148.508 4.78715C148.638 4.82161 148.759 4.87115 148.872 4.93469C148.982 4.99927 149.081 5.07574 149.173 5.16726C149.262 5.2577 149.338 5.35999 149.4 5.47307C149.465 5.58397 149.513 5.70779 149.546 5.84132C149.58 5.97377 149.596 6.11483 149.596 6.26236C149.596 6.41201 149.58 6.55632 149.546 6.69199C149.51 6.82982 149.459 6.9558 149.395 7.07317C149.33 7.18837 149.251 7.29499 149.16 7.38974C149.068 7.4834 148.966 7.56417 148.853 7.63201C148.74 7.6977 148.616 7.74831 148.484 7.78492C148.352 7.82152 148.216 7.83983 148.067 7.83983C147.925 7.83983 147.787 7.82152 147.656 7.78599C147.527 7.75153 147.405 7.69985 147.295 7.63524C147.182 7.56955 147.082 7.48988 146.99 7.39836C146.902 7.30574 146.827 7.20237 146.761 7.08607C146.7 6.97195 146.648 6.84705 146.617 6.71245C146.581 6.57785 146.565 6.43679 146.565 6.28819C146.565 6.1385 146.581 5.99638 146.617 5.86177C146.651 5.72609 146.7 5.60227 146.764 5.486C146.829 5.37185 146.904 5.26848 146.996 5.17478C147.087 5.08326 147.189 5.00468 147.306 4.93791C147.419 4.8733 147.539 4.82269 147.674 4.78715Z" fill="white"/>
</mask>
<g mask="url(#mask0_321_161)">
<path d="M65.6394 3.87402C66.9305 3.87402 68.0795 4.01615 69.0884 4.30259C70.0973 4.5901 70.9491 5.0014 71.6434 5.53549C72.3381 6.07064 72.8657 6.7178 73.2265 7.47908C73.5871 8.24036 73.769 9.09749 73.769 10.0504H69.6923C69.6923 9.60467 69.6052 9.20193 69.4307 8.84336C69.2574 8.48481 69.0021 8.179 68.663 7.92487C68.3237 7.67182 67.9061 7.47693 67.4096 7.33803C66.9121 7.20128 66.3393 7.13236 65.689 7.13236C65.1107 7.13236 64.5831 7.1862 64.1051 7.29279C63.6279 7.40049 63.2199 7.5534 62.8776 7.75151C62.536 7.95073 62.2692 8.1876 62.0795 8.46326C61.8902 8.73891 61.7942 9.04472 61.7942 9.38177C61.7942 9.77803 61.9117 10.101 62.1452 10.353C62.38 10.6039 62.6901 10.8096 63.0755 10.9679C63.4622 11.1283 63.8994 11.2564 64.386 11.3533C64.875 11.4503 65.3712 11.5386 65.8784 11.6226L67.094 11.8207C67.5971 11.9036 68.1225 11.9951 68.6749 12.0974C69.2251 12.1997 69.772 12.3354 70.3115 12.5066C70.852 12.6778 71.3678 12.8921 71.8579 13.1473C72.3488 13.4046 72.7805 13.7244 73.1565 14.111C73.5311 14.4976 73.8294 14.9595 74.0502 15.4957C74.2699 16.0341 74.3796 16.6694 74.3796 17.4016C74.3796 18.3115 74.1988 19.1191 73.8349 19.8244C73.4697 20.5297 72.9346 21.1251 72.2273 21.6119C71.5175 22.0964 70.6423 22.4657 69.6008 22.7188C68.5586 22.9718 67.36 23.101 66.0032 23.101C64.5875 23.101 63.3404 22.9611 62.2648 22.6811C61.1911 22.4033 60.2922 21.9941 59.5697 21.459C58.848 20.9205 58.3044 20.2583 57.9403 19.4723C57.5764 18.6884 57.3956 17.7871 57.3956 16.7717H61.4723C61.4723 17.7548 61.8417 18.5086 62.5801 19.0362C63.3189 19.5606 64.4507 19.8244 65.9787 19.8244C66.6571 19.8244 67.2644 19.7738 67.8027 19.6683C68.3389 19.5638 68.7943 19.4098 69.1658 19.2138C69.5385 19.0147 69.8227 18.7692 70.0176 18.4763C70.2147 18.1855 70.3115 17.8517 70.3115 17.477C70.3115 17.1787 70.2555 16.9203 70.1469 16.6996C70.0369 16.4788 69.8809 16.285 69.6783 16.117C69.4782 15.948 69.2403 15.8059 68.9646 15.6874C68.6879 15.569 68.3852 15.4634 68.0547 15.3719C67.7231 15.2804 67.3719 15.1996 67.0006 15.1285C66.6268 15.0575 66.2466 14.9875 65.8547 14.9218L64.6316 14.7151C64.2881 14.6548 63.9284 14.588 63.5515 14.5159C63.1736 14.4448 62.7902 14.3597 62.4026 14.265C62.0139 14.168 61.6283 14.0518 61.2493 13.9172C60.8683 13.7815 60.5042 13.6211 60.1574 13.4326C59.8098 13.2453 59.4889 13.0288 59.1937 12.7844C58.8988 12.5389 58.6413 12.2546 58.4238 11.9316C58.2063 11.6107 58.0362 11.2446 57.9125 10.8365C57.7876 10.4284 57.725 9.97077 57.725 9.46359C57.725 8.60324 57.9058 7.82906 58.2678 7.13992C58.6286 6.45077 59.1507 5.86608 59.8346 5.38261C60.5182 4.90021 61.3485 4.52763 62.3271 4.26705C63.3048 4.00432 64.4108 3.87402 65.6394 3.87402Z" fill="#E8F0F1"/>
<path d="M80.4592 22.6025H76.3059V4.36935H80.4592V9.58744C80.6552 8.67863 80.9405 7.86889 81.3099 7.16037C81.6782 6.45293 82.125 5.85315 82.6452 5.36646C83.1662 4.87758 83.7594 4.50718 84.424 4.25305C85.0894 4 85.8108 3.87403 86.5937 3.87403C87.4141 3.87403 88.155 4.01185 88.8149 4.29073C89.474 4.56962 90.0468 4.97773 90.54 5.51396C91.0298 6.05234 91.4317 6.7135 91.746 7.49954C92.0616 8.2856 92.2821 9.18471 92.4081 10.2001C92.5785 9.20193 92.8445 8.31145 93.205 7.52754C93.5659 6.74581 94.016 6.0825 94.5478 5.53982C95.0842 4.99603 95.6978 4.58254 96.3902 4.29936C97.0816 4.01508 97.8408 3.87403 98.6677 3.87403C99.6174 3.87403 100.457 4.05924 101.195 4.43179C101.93 4.80329 102.551 5.3449 103.055 6.05667C103.558 6.76734 103.943 7.63954 104.21 8.67325C104.474 9.70696 104.606 10.886 104.606 12.2094V22.6025H100.455V12.6229C100.455 9.23747 99.2168 7.54585 96.7423 7.54585C96.0801 7.54585 95.4878 7.6643 94.9623 7.9012C94.4381 8.13807 93.9998 8.48374 93.6411 8.93813C93.2806 9.3936 93.0079 9.95246 92.8175 10.6125C92.6267 11.2748 92.5322 12.0328 92.5322 12.8878V22.6025H88.3811V12.6229C88.3811 9.23747 87.1428 7.54585 84.6663 7.54585C84.0072 7.54585 83.4118 7.6643 82.8894 7.9012C82.3651 8.13807 81.9257 8.48374 81.5652 8.93813C81.2076 9.3936 80.9331 9.95246 80.7434 10.6125C80.553 11.2748 80.4592 12.0328 80.4592 12.8878V22.6025Z" fill="#E8F0F1"/>
<path d="M123.906 4.36934H119.756V14.0873C119.756 14.9347 119.651 15.6928 119.441 16.355C119.231 17.0194 118.927 17.5793 118.529 18.0348C118.127 18.4892 117.641 18.8337 117.061 19.0739C116.48 19.3108 115.823 19.4292 115.083 19.4292C112.343 19.4292 110.975 17.7354 110.975 14.3511V4.36934H106.821V14.7635C106.821 16.088 106.963 17.2649 107.244 18.2986C107.526 19.3323 107.939 20.2045 108.479 20.9173C109.023 21.628 109.687 22.1696 110.475 22.5411C111.259 22.9126 112.156 23.101 113.165 23.101C114.014 23.101 114.797 22.9686 115.514 22.708C116.23 22.4442 116.867 22.0641 117.427 21.5613C117.987 21.0605 118.464 20.4435 118.86 19.7167C119.252 18.9899 119.551 18.1608 119.756 17.2272V22.6025H123.906V4.36934Z" fill="#E8F0F1"/>
<path d="M145.108 8.2059H137.421V22.6025H133.07V8.2059H125.379V4.36934H145.108V8.2059Z" fill="#E8F0F1"/>
<path fill-rule="evenodd" clip-rule="evenodd" d="M51.5401 4.35535H55.6749C55.6749 7.74614 55.2055 10.8893 54.4345 13.48C55.2055 16.0707 55.6749 19.2139 55.6749 22.6025H51.5401C51.5668 20.3445 52.0633 18.6615 52.4219 17.7516C52.2011 18.1931 51.8706 18.7993 51.3742 19.4346C49.1419 21.9973 46.3294 23.0709 43.6009 23.0709C39.6309 23.0709 34.0078 20.0968 34.0078 13.48C34.0078 6.86426 39.6309 3.88696 43.6009 3.88696C46.3294 3.88696 49.1419 4.96158 51.3742 7.5254C51.8706 8.18761 52.2011 8.76585 52.4219 9.20624C52.0633 8.32436 51.5668 6.64352 51.5401 4.35535ZM38.1427 13.48C38.1427 17.6149 41.8092 18.936 43.6009 18.936C46.4953 18.936 48.7554 16.9257 50.1067 13.48C48.7554 10.0612 46.4953 8.0218 43.6009 8.0218C41.8092 8.0218 38.1427 9.37207 38.1427 13.48Z" fill="#E8F0F1"/>
<path fill-rule="evenodd" clip-rule="evenodd" d="M147.358 5.41168V7.19162H147.782V6.56599H148C148.035 6.56599 148.067 6.56814 148.094 6.57355C148.121 6.57785 148.146 6.58752 148.167 6.60045C148.189 6.6123 148.207 6.63061 148.223 6.65214C148.239 6.67366 148.255 6.7006 148.272 6.7329L148.493 7.19162H148.95L148.729 6.7006C148.652 6.52508 148.543 6.43247 148.403 6.42172C148.48 6.41849 148.546 6.40556 148.609 6.38078C148.67 6.35817 148.722 6.32479 148.765 6.28389C148.81 6.24295 148.842 6.19237 148.867 6.13528C148.891 6.07822 148.902 6.01361 148.902 5.94469C148.902 5.86392 148.888 5.79178 148.856 5.72609C148.826 5.65936 148.783 5.60442 148.726 5.55706C148.67 5.51183 148.603 5.47522 148.525 5.44936C148.447 5.42461 148.358 5.41168 148.261 5.41168H147.358ZM148.395 6.14391C148.34 6.18051 148.261 6.19989 148.162 6.19989H147.782V5.79071H148.159C148.264 5.79071 148.342 5.80794 148.395 5.84132C148.453 5.87685 148.48 5.92639 148.48 5.991C148.48 6.05669 148.453 6.10837 148.395 6.14391Z" fill="#E8F0F1"/>
<path fill-rule="evenodd" clip-rule="evenodd" d="M148.614 4.43506C148.449 4.3909 148.277 4.36937 148.097 4.36937C147.914 4.36937 147.742 4.39197 147.575 4.43613C147.408 4.48027 147.252 4.54381 147.109 4.62565C146.966 4.70854 146.837 4.80761 146.719 4.92391C146.603 5.03913 146.504 5.16833 146.42 5.31153C146.339 5.45369 146.274 5.60767 146.229 5.77241C146.186 5.93717 146.161 6.11053 146.161 6.29141C146.161 6.47125 146.183 6.64353 146.229 6.80827C146.274 6.97195 146.336 7.12593 146.416 7.26699C146.5 7.40911 146.597 7.53727 146.713 7.65354C146.829 7.76876 146.958 7.86676 147.101 7.94968C147.241 8.03149 147.394 8.09503 147.559 8.13919C147.723 8.18332 147.895 8.20593 148.076 8.20593C148.255 8.20593 148.428 8.18332 148.595 8.13919C148.759 8.09288 148.912 8.03042 149.055 7.9475C149.198 7.86461 149.327 7.76446 149.443 7.64816C149.558 7.53079 149.659 7.40159 149.742 7.25728C149.825 7.11515 149.887 6.9601 149.932 6.79319C149.976 6.6263 150 6.45294 150 6.27096C150 6.09007 149.978 5.91994 149.932 5.75518C149.89 5.59152 149.828 5.43861 149.747 5.29756C149.666 5.15648 149.567 5.02835 149.454 4.9142C149.338 4.80008 149.212 4.70316 149.068 4.62239C148.929 4.54166 148.776 4.47812 148.614 4.43506ZM147.674 4.78715C147.805 4.7527 147.945 4.73547 148.094 4.73547C148.239 4.73547 148.377 4.7527 148.508 4.78715C148.638 4.82161 148.759 4.87115 148.872 4.93469C148.982 4.99927 149.081 5.07574 149.173 5.16726C149.262 5.2577 149.338 5.35999 149.4 5.47307C149.465 5.58397 149.513 5.70779 149.546 5.84132C149.58 5.97377 149.596 6.11483 149.596 6.26236C149.596 6.41201 149.58 6.55632 149.546 6.69199C149.51 6.82982 149.459 6.9558 149.395 7.07317C149.33 7.18837 149.251 7.29499 149.16 7.38974C149.068 7.4834 148.966 7.56417 148.853 7.63201C148.74 7.6977 148.616 7.74831 148.484 7.78492C148.352 7.82152 148.216 7.83983 148.067 7.83983C147.925 7.83983 147.787 7.82152 147.656 7.78599C147.527 7.75153 147.405 7.69985 147.295 7.63524C147.182 7.56955 147.082 7.48988 146.99 7.39836C146.902 7.30574 146.827 7.20237 146.761 7.08607C146.7 6.97195 146.648 6.84705 146.617 6.71245C146.581 6.57785 146.565 6.43679 146.565 6.28819C146.565 6.1385 146.581 5.99638 146.617 5.86177C146.651 5.72609 146.7 5.60227 146.764 5.486C146.829 5.37185 146.904 5.26848 146.996 5.17478C147.087 5.08326 147.189 5.00468 147.306 4.93791C147.419 4.8733 147.539 4.82269 147.674 4.78715Z" fill="#E8F0F1"/>
<g filter="url(#filter0_f_321_161)">
<path d="M41.8723 13.0118V19.6093C41.8723 31.8123 40.1546 37.7801 33.753 40.4283H33.7021C31.6192 41.3164 29.1223 41.8355 25.9458 42.0938H25.8926C23.8651 42.3014 21.6272 42.3545 19.0772 42.3545H7.52465C-11.2132 42.3545 -15.2705 38.3522 -15.2705 19.6093V13.0118C-15.2705 9.06716 -12.5124 5.1202 -6.99626 -0.38615L-0.178528 -7.13589C10.6457 -17.8857 15.3828 -18.1438 25.8926 -7.96632L25.9458 -7.91329C26.2047 -7.70565 26.5214 -7.39425 26.7804 -7.13589L33.753 -0.178516C39.1674 5.22402 41.8723 9.11795 41.8723 13.0118Z" fill="#E8F0F1"/>
</g>
</g>
<defs>
<filter id="filter0_f_321_161" x="-515.271" y="-515.404" width="1057.14" height="1057.76" filterUnits="userSpaceOnUse" color-interpolation-filters="sRGB">
<feFlood flood-opacity="0" result="BackgroundImageFix"/>
<feBlend mode="normal" in="SourceGraphic" in2="BackgroundImageFix" result="shape"/>
<feGaussianBlur stdDeviation="250" result="effect1_foregroundBlur_321_161"/>
</filter>
</defs>
</svg>
